<svg width="80" height="80" viewBox="0 0 80 80" fill="none" xmlns="http://www.w3.org/2000/svg">
<path d="M53.3333 56.6667C53.3333 58.4348 54.0357 60.1305 55.2859 61.3807C56.5362 62.631 58.2319 63.3333 60 63.3333C61.7681 63.3333 63.4638 62.631 64.714 61.3807C65.9643 60.1305 66.6666 58.4348 66.6666 56.6667C66.6666 54.8986 65.9643 53.2029 64.714 51.9526C63.4638 50.7024 61.7681 50 60 50C58.2319 50 56.5362 50.7024 55.2859 51.9526C54.0357 53.2029 53.3333 54.8986 53.3333 56.6667ZM13.3333 56.6667C13.3333 58.4348 14.0357 60.1305 15.2859 61.3807C16.5362 62.631 18.2319 63.3333 20 63.3333C21.7681 63.3333 23.4638 62.631 24.714 61.3807C25.9643 60.1305 26.6666 58.4348 26.6666 56.6667C26.6666 54.8986 25.9643 53.2029 24.714 51.9526C23.4638 50.7024 21.7681 50 20 50C18.2319 50 16.5362 50.7024 15.2859 51.9526C14.0357 53.2029 13.3333 54.8986 13.3333 56.6667Z" stroke="white" stroke-width="6" stroke-linecap="round" stroke-linejoin="round"/>
<path d="M26.6666 56.6667H43.3333C43.9883 52.4816 45.9553 48.6126 48.9506 45.6173C51.9459 42.622 55.8149 40.6551 60 40V23.3334C60 21.5652 59.2976 19.8696 58.0473 18.6193C56.7971 17.3691 55.1014 16.6667 53.3333 16.6667H50" stroke="white" stroke-width="6" stroke-linecap="round" stroke-linejoin="round"/>
</svg>
