<svg width="80" height="80" viewBox="0 0 80 80" fill="none" xmlns="http://www.w3.org/2000/svg">
<path d="M52.2946 54.8865C53.554 54.8865 54.625 54.4452 55.5077 53.5626C56.3903 52.68 56.8306 51.6099 56.8286 50.3525C56.8286 49.0931 56.3873 48.022 55.5046 47.1394C54.622 46.2568 53.552 45.8165 52.2946 45.8185C51.0351 45.8185 49.9641 46.2598 49.0815 47.1424C48.1989 48.0251 47.7586 49.0951 47.7606 50.3525C47.7606 51.6119 48.2019 52.683 49.0845 53.5656C49.9671 54.4482 51.0371 54.8885 52.2946 54.8865ZM52.2946 63.9545C53.8563 63.9545 55.292 63.5887 56.6019 62.8572C57.9117 62.1258 58.9696 61.1565 59.7757 59.9494C58.6673 59.2945 57.4835 58.7908 56.224 58.4381C54.9646 58.0855 53.6548 57.9092 52.2946 57.9092C50.9344 57.9092 49.6246 58.0855 48.3651 58.4381C47.1057 58.7908 45.9218 59.2945 44.8135 59.9494C45.6195 61.1585 46.6775 62.1288 47.9873 62.8603C49.2971 63.5918 50.7329 63.9565 52.2946 63.9545ZM52.2946 69.9998C48.1132 69.9998 44.5485 68.5257 41.6004 65.5776C38.6523 62.6295 37.1793 59.0658 37.1813 54.8865C37.1813 50.7051 38.6553 47.1404 41.6034 44.1923C44.5515 41.2442 48.1152 39.7712 52.2946 39.7732C56.4759 39.7732 60.0406 41.2472 62.9887 44.1953C65.9368 47.1434 67.4099 50.7072 67.4079 54.8865C67.4079 59.0678 65.9338 62.6326 62.9857 65.5807C60.0376 68.5288 56.4739 70.0018 52.2946 69.9998ZM37.1813 69.9998C30.1788 68.2366 24.3974 64.2184 19.8373 57.9454C15.2771 51.6724 12.998 44.7082 13 37.0528V22.7707C13 21.5113 13.3657 20.3778 14.0972 19.3702C14.8287 18.3627 15.7728 17.6322 16.9295 17.1788L35.0654 10.3778C35.7707 10.1259 36.476 10 37.1813 10C37.8866 10 38.5918 10.1259 39.2971 10.3778L57.4331 17.1788C58.5918 17.6322 59.5369 18.3627 60.2683 19.3702C60.9998 20.3778 61.3646 21.5113 61.3625 22.7707V35.7682C60.0527 35.1133 58.5787 34.6095 56.9404 34.2568C55.3021 33.9042 53.7535 33.7279 52.2946 33.7279C46.4508 33.7279 41.4634 35.7934 37.3324 39.9243C33.2014 44.0553 31.136 49.0427 31.136 54.8865C31.136 58.0099 31.7284 60.8311 32.9133 63.3499C34.0982 65.8688 35.5964 68.0602 37.408 69.9242C37.3576 69.9242 37.3203 69.9373 37.2961 69.9635C37.272 69.9897 37.2337 70.0018 37.1813 69.9998Z" fill="white"/>
</svg>
