<svg width="80" height="80" viewBox="0 0 80 80" fill="none" xmlns="http://www.w3.org/2000/svg">
<path d="M70 19.375C70 21.4844 68.3242 23.4297 65.5 25C62.0898 26.8867 57.0039 28.2227 51.168 28.6211C50.7344 28.4102 50.3008 28.2109 49.8438 28.0352C45.2266 26.1016 39.0859 25 32.5 25C31.5273 25 30.5781 25.0234 29.6289 25.0703L29.5 25C26.6758 23.4297 25 21.4844 25 19.375C25 14.1953 35.0781 10 47.5 10C59.9219 10 70 14.1953 70 19.375ZM28.832 28.8789C30.0273 28.7969 31.2578 28.75 32.5 28.75C39.7891 28.75 46.2578 30.1914 50.3711 32.4297C53.2773 34.0117 55 35.9805 55 38.125C55 38.5938 54.918 39.0508 54.7539 39.4961C54.2148 41.043 52.7617 42.4609 50.6523 43.6562C50.6406 43.668 50.6172 43.668 50.6055 43.6797C50.5703 43.7031 50.5352 43.7148 50.5 43.7383C46.3984 46.0117 39.8594 47.4883 32.5 47.4883C25.5156 47.4883 19.2695 46.1641 15.1328 44.0781C14.9102 43.9727 14.6992 43.8555 14.4883 43.7383C11.6758 42.1797 10 40.2344 10 38.125C10 34.0469 16.2578 30.5664 25 29.2891C26.2305 29.1133 27.5078 28.9727 28.832 28.8789ZM58.75 38.125C58.75 35.5586 57.5078 33.4492 55.9258 31.8672C59.2422 31.3516 62.2773 30.5312 64.8555 29.4648C66.7656 28.668 68.5469 27.6836 70 26.4766V30.625C70 32.8867 68.0664 34.9727 64.8672 36.5898C63.1562 37.457 61.0703 38.1953 58.7266 38.7578C58.7383 38.5469 58.75 38.3477 58.75 38.1367V38.125ZM55 49.375C55 51.4844 53.3242 53.4297 50.5 55C50.2891 55.1172 50.0781 55.2227 49.8555 55.3398C45.7305 57.4258 39.4844 58.75 32.5 58.75C25.1406 58.75 18.6016 57.2734 14.5 55C11.6758 53.4297 10 51.4844 10 49.375V45.2266C11.4648 46.4336 13.2344 47.418 15.1445 48.2148C19.7734 50.1484 25.9141 51.25 32.5 51.25C39.0859 51.25 45.2266 50.1484 49.8555 48.2148C50.7695 47.8398 51.6484 47.4062 52.4805 46.9375C53.1953 46.5391 53.8633 46.0938 54.4961 45.625C54.6719 45.4961 54.8359 45.3555 55 45.2266V49.375ZM58.75 49.375V42.5898C60.9766 42.0977 63.0273 41.4766 64.8555 40.7148C66.7656 39.918 68.5469 38.9336 70 37.7266V41.875C70 43.1055 69.4141 44.3359 68.2539 45.4961C66.3438 47.4062 62.9805 48.9766 58.7266 49.9961C58.7383 49.7969 58.75 49.5859 58.75 49.375ZM32.5 62.5C39.0859 62.5 45.2266 61.3984 49.8555 59.4648C51.7656 58.668 53.5469 57.6836 55 56.4766V60.625C55 65.8047 44.9219 70 32.5 70C20.0781 70 10 65.8047 10 60.625V56.4766C11.4648 57.6836 13.2344 58.668 15.1445 59.4648C19.7734 61.3984 25.9141 62.5 32.5 62.5Z" fill="white"/>
</svg>
