<svg width="80" height="80" viewBox="0 0 80 80" fill="none" xmlns="http://www.w3.org/2000/svg">
<path d="M28.0018 38.0024C31.1847 38.0024 34.2373 36.738 36.4879 34.4873C38.7386 32.2367 40.003 29.1841 40.003 26.0012C40.003 22.8183 38.7386 19.7657 36.4879 17.5151C34.2373 15.2644 31.1847 14 28.0018 14C24.8189 14 21.7663 15.2644 19.5157 17.5151C17.265 19.7657 16.0006 22.8183 16.0006 26.0012C16.0006 29.1841 17.265 32.2367 19.5157 34.4873C21.7663 36.738 24.8189 38.0024 28.0018 38.0024ZM55.0045 38.0024C57.3917 38.0024 59.6811 37.0541 61.3691 35.3661C63.0571 33.6781 64.0054 31.3887 64.0054 29.0015C64.0054 26.6143 63.0571 24.3249 61.3691 22.6369C59.6811 20.9489 57.3917 20.0006 55.0045 20.0006C52.6173 20.0006 50.3279 20.9489 48.6399 22.6369C46.9519 24.3249 46.0036 26.6143 46.0036 29.0015C46.0036 31.3887 46.9519 33.6781 48.6399 35.3661C50.3279 37.0541 52.6173 38.0024 55.0045 38.0024ZM17.5008 44.003C13.3603 44.003 10 47.3633 10 51.5037C10 51.5037 10 65.0051 28.0018 65.0051C42.2712 65.0051 45.2295 56.5203 45.8416 53.0039C46.0036 52.0858 46.0036 51.5037 46.0036 51.5037C46.0036 47.3633 42.6433 44.003 38.5029 44.003H17.5008ZM51.9802 53.604C51.9111 54.6918 51.7301 55.7696 51.4401 56.8203C51.0621 58.1584 50.438 59.7606 49.3879 61.4107C51.2292 61.8233 53.1117 62.0226 54.9985 62.0048C70 62.0048 70 51.5037 70 51.5037C70 47.3633 66.6397 44.003 62.4992 44.003H49.724C51.1641 46.1512 51.9982 48.7255 51.9982 51.5037V53.0039L51.9802 53.604Z" fill="white"/>
</svg>
